<svg xmlns="http://www.w3.org/2000/svg" viewBox="0 0 1200 800">
  <defs>
    <linearGradient id="revenue-grad" x1="0%" y1="0%" x2="100%" y2="100%">
      <stop offset="0%" style="stop-color:#0c4a6e;stop-opacity:1" />
      <stop offset="50%" style="stop-color:#082f49;stop-opacity:1" />
      <stop offset="100%" style="stop-color:#0f172a;stop-opacity:1" />
    </linearGradient>
  </defs>
  <rect width="1200" height="800" fill="url(#revenue-grad)"/>
  <g opacity="0.3">
    <rect x="200" y="400" width="50" height="250" fill="#0ea5e9" rx="4"/>
    <rect x="280" y="300" width="50" height="350" fill="#0ea5e9" rx="4"/>
    <rect x="360" y="350" width="50" height="300" fill="#0ea5e9" rx="4"/>
    <rect x="440" y="250" width="50" height="400" fill="#0ea5e9" rx="4"/>
    <rect x="520" y="320" width="50" height="330" fill="#0ea5e9" rx="4"/>
  </g>
  <g opacity="0.25">
    <polyline points="750,450 820,380 890,400 960,320 1030,340" fill="none" stroke="#06b6d4" stroke-width="3"/>
    <circle cx="750" cy="450" r="4" fill="#06b6d4"/>
    <circle cx="820" cy="380" r="4" fill="#06b6d4"/>
    <circle cx="890" cy="400" r="4" fill="#06b6d4"/>
    <circle cx="960" cy="320" r="4" fill="#06b6d4"/>
    <circle cx="1030" cy="340" r="4" fill="#06b6d4"/>
  </g>
  <g opacity="0.08" stroke="#f8fafc" stroke-width="1">
    <line x1="100" y1="250" x2="1100" y2="250"/>
    <line x1="100" y1="350" x2="1100" y2="350"/>
    <line x1="100" y1="450" x2="1100" y2="450"/>
  </g>
  <text x="600" y="700" font-family="Inter, Arial" font-size="44" font-weight="bold" fill="#cffafe" text-anchor="middle">High-Impact Revenue</text>
</svg>