<svg xmlns="http://www.w3.org/2000/svg" viewBox="0 0 1200 800">
  <defs>
    <linearGradient id="grad3" x1="0%" y1="0%" x2="100%" y2="100%">
      <stop offset="0%" style="stop-color:#0f172a;stop-opacity:1" />
      <stop offset="50%" style="stop-color:#1e293b;stop-opacity:1" />
      <stop offset="100%" style="stop-color:#0f172a;stop-opacity:1" />
    </linearGradient>
    <radialGradient id="glow" cx="50%" cy="50%" r="40%">
      <stop offset="0%" style="stop-color:#10b981;stop-opacity:0.3" />
      <stop offset="100%" style="stop-color:#10b981;stop-opacity:0" />
    </radialGradient>
  </defs>
  <rect width="1200" height="800" fill="url(#grad3)"/>
  <g opacity="0.2">
    <circle cx="300" cy="280" r="50" fill="url(#glow)"/>
    <circle cx="300" cy="280" r="50" fill="none" stroke="#10b981" stroke-width="2"/>
    <path d="M 280 290 L 300 310 L 330 270" fill="none" stroke="#10b981" stroke-width="3" stroke-linecap="round" stroke-linejoin="round"/>
  </g>
  <g opacity="0.2">
    <circle cx="950" cy="500" r="60" fill="url(#glow)"/>
    <circle cx="950" cy="500" r="60" fill="none" stroke="#10b981" stroke-width="2"/>
    <path d="M 925 515 L 950 540 L 990 495" fill="none" stroke="#10b981" stroke-width="4" stroke-linecap="round" stroke-linejoin="round"/>
  </g>
  <g opacity="0.25">
    <circle cx="500" cy="350" r="8" fill="#fbbf24"/>
    <circle cx="520" cy="320" r="6" fill="#fbbf24"/>
    <circle cx="550" cy="360" r="7" fill="#fbbf24"/>
    <circle cx="480" cy="400" r="5" fill="#fbbf24"/>
  </g>
  <rect x="400" y="180" width="200" height="80" rx="12" fill="#10b981" opacity="0.15" stroke="#10b981" stroke-width="1.5" opacity="0.3"/>
  <rect x="650" y="600" width="200" height="80" rx="12" fill="#10b981" opacity="0.15" stroke="#10b981" stroke-width="1.5" opacity="0.3"/>
  <line x1="300" y1="330" x2="450" y2="220" stroke="#10b981" stroke-width="1.5" opacity="0.15"/>
  <line x1="600" y1="260" x2="950" y2="440" stroke="#10b981" stroke-width="1.5" opacity="0.15"/>
  <text x="600" y="700" font-family="Inter, Arial" font-size="56" font-weight="bold" fill="#f8fafc" text-anchor="middle">Onboarding Success</text>
  <text x="600" y="760" font-family="Inter, Arial" font-size="18" fill="#cbd5e1" text-anchor="middle">Staff adoption with premium workflows and smooth transitions</text>
</svg>